<?xml version="1.0" encoding="UTF-8" standalone="no"?>
<!-- Created with Inkscape (http://www.inkscape.org/) -->

<svg
   xmlns:dc="http://purl.org/dc/elements/1.1/"
   xmlns:cc="http://creativecommons.org/ns#"
   xmlns:rdf="http://www.w3.org/1999/02/22-rdf-syntax-ns#"
   xmlns:svg="http://www.w3.org/2000/svg"
   xmlns="http://www.w3.org/2000/svg"
   xmlns:sodipodi="http://sodipodi.sourceforge.net/DTD/sodipodi-0.dtd"
   xmlns:inkscape="http://www.inkscape.org/namespaces/inkscape"
   width="65.619308"
   height="65.619308"
   id="svg3866"
   version="1.1"
   inkscape:version="0.48.4 r9939"
   sodipodi:docname="JoeLogo_v1B.svg"
   inkscape:export-filename="C:\Users\Joe\Google Drive\Udacity\Chicago Files\Schinasi_PortfolioSite_v1_101015\images\JoeLogo_v1.png"
   inkscape:export-xdpi="90"
   inkscape:export-ydpi="90">
  <defs
     id="defs3868" />
  <sodipodi:namedview
     id="base"
     pagecolor="#ffffff"
     bordercolor="#666666"
     borderopacity="1.0"
     inkscape:pageopacity="0.0"
     inkscape:pageshadow="2"
     inkscape:zoom="0.98994949"
     inkscape:cx="112.20207"
     inkscape:cy="9.2438023"
     inkscape:document-units="px"
     inkscape:current-layer="layer1"
     showgrid="false"
     inkscape:window-width="1536"
     inkscape:window-height="801"
     inkscape:window-x="-8"
     inkscape:window-y="-8"
     inkscape:window-maximized="1"
     fit-margin-top="0"
     fit-margin-left="0"
     fit-margin-right="0"
     fit-margin-bottom="0" />
  <metadata
     id="metadata3871">
    <rdf:RDF>
      <cc:Work
         rdf:about="">
        <dc:format>image/svg+xml</dc:format>
        <dc:type
           rdf:resource="http://purl.org/dc/dcmitype/StillImage" />
        <dc:title></dc:title>
      </cc:Work>
    </rdf:RDF>
  </metadata>
  <g
     inkscape:label="Layer 1"
     inkscape:groupmode="layer"
     id="layer1"
     transform="translate(-344.3332,-416.69539)">
    <g
       style="font-size:40px;font-style:normal;font-weight:normal;line-height:125%;letter-spacing:0px;word-spacing:0px;fill:#000000;fill-opacity:1;stroke:none;font-family:Sans"
       id="text3079">
      <path
         d="m 370.41431,463.5578 -7.01172,-2.48047 5.19531,-14.57031 c 0.14322,-0.41665 0.21483,-0.79425 0.21484,-1.13281 -1e-5,-0.70311 -0.26043,-1.30858 -0.78125,-1.81641 -0.52084,-0.50779 -1.13933,-0.7617 -1.85546,-0.76172 -0.71616,2e-5 -1.32488,0.25718 -1.82618,0.77149 -0.50131,0.51434 -0.75196,1.13608 -0.75195,1.86523 -10e-6,0.7422 0.25064,1.3672 0.75195,1.875 0.5013,0.50783 1.11653,0.76173 1.84571,0.76172 0.15624,10e-6 0.40363,-0.026 0.74218,-0.0781 l -3.16406,7.65625 c -2.77344,-1.21093 -4.76888,-2.59113 -5.98633,-4.14062 -1.21745,-1.54947 -1.82617,-3.48306 -1.82617,-5.80078 0,-2.87759 0.98633,-5.30597 2.95899,-7.28516 1.97265,-1.97914 4.39126,-2.96872 7.25586,-2.96875 2.70831,3e-5 5.07485,0.99287 7.0996,2.97852 2.02472,1.9857 3.03709,4.30666 3.03711,6.96289 -2e-5,1.23699 -0.47528,3.16407 -1.42578,5.78125 z"
         style="font-family:Bauhaus 93;-inkscape-font-specification:Bauhaus 93"
         id="path3003"
         inkscape:connector-curvature="0" />
      <path
         d="m 395.41431,447.48358 c 1.10675,1.14585 1.86847,2.20054 2.28515,3.16406 0.41665,0.96356 0.62498,2.13543 0.625,3.51563 -2e-5,2.64323 -0.90171,4.85026 -2.70508,6.62109 -1.8034,1.77084 -4.05274,2.65625 -6.74804,2.65625 -2.70834,0 -4.9642,-0.88541 -6.76758,-2.65625 -1.80339,-1.77083 -2.70508,-3.97786 -2.70508,-6.62109 0,-1.34114 0.2181,-2.51301 0.6543,-3.51563 0.43619,-1.00259 1.18815,-2.05727 2.25586,-3.16406 -0.96355,-1.27602 -1.44532,-2.69529 -1.44531,-4.25781 -1e-5,-2.25258 0.74869,-4.11131 2.24609,-5.57617 1.49739,-1.46482 3.40494,-2.19724 5.72266,-2.19727 2.34373,3e-5 4.26756,0.72919 5.77148,2.1875 1.50389,1.45836 2.25584,3.32685 2.25586,5.60547 -2e-5,1.53648 -0.48179,2.94924 -1.44531,4.23828 z m -6.64063,-6.30859 c -0.58595,2e-5 -1.0905,0.21486 -1.51367,0.64453 -0.42319,0.42971 -0.63477,0.93101 -0.63477,1.50391 0,0.66408 0.20833,1.21095 0.625,1.64062 0.41666,0.42971 0.95051,0.64455 1.60157,0.64453 0.58592,2e-5 1.09048,-0.22134 1.51367,-0.66406 0.42316,-0.44269 0.63475,-0.96352 0.63476,-1.5625 -1e-5,-0.62498 -0.21485,-1.14907 -0.64453,-1.57227 -0.4297,-0.42315 -0.95704,-0.63474 -1.58203,-0.63476 z m 0.0586,9.9414 c -0.88543,2e-5 -1.64389,0.30926 -2.2754,0.92774 -0.63151,0.6185 -0.94727,1.36394 -0.94726,2.23633 -1e-5,0.95052 0.30598,1.74154 0.91797,2.37304 0.61197,0.63152 1.3802,0.94727 2.30469,0.94727 0.92446,0 1.69269,-0.31575 2.30468,-0.94727 0.61197,-0.6315 0.91796,-1.42252 0.91797,-2.37304 -1e-5,-0.85937 -0.31902,-1.60156 -0.95703,-2.22657 -0.63803,-0.62498 -1.39324,-0.93748 -2.26562,-0.9375 z"
         style="font-family:Bauhaus 93;-inkscape-font-specification:Bauhaus 93"
         id="path3005"
         inkscape:connector-curvature="0" />
    </g>
    <path
       transform="translate(-501.18478,-301.32662)"
       style="fill:none;stroke:#000000;stroke-width:4;stroke-miterlimit:4;stroke-opacity:1"
       d="m 909.13729,750.83167 c 0,17.0157 -13.79395,30.80965 -30.80965,30.80965 -17.0157,0 -30.80966,-13.79395 -30.80966,-30.80965 0,-17.01571 13.79396,-30.80966 30.80966,-30.80966 17.0157,0 30.80965,13.79395 30.80965,30.80966 z"
       id="path3083"
       inkscape:connector-curvature="0" />
  </g>
</svg>
